<svg xmlns="http://www.w3.org/2000/svg" viewBox="0 0 23.41 23.41"><title>Purchase icon</title><g id="Layer_2" data-name="Layer 2"><g id="Layer_4" data-name="Layer 4"><circle cx="11.7" cy="11.7" r="11.51" style="fill:#fff;stroke:#231f20;stroke-miterlimit:10;stroke-width:0.379739999771118px"/><path d="M9.32,14.47a4.3,4.3,0,0,0,2,.59c1.1,0,1.62-.54,1.62-1.25s-.43-1.12-1.55-1.54c-1.53-.55-2.24-1.37-2.24-2.38a2.61,2.61,0,0,1,2.91-2.48,3.85,3.85,0,0,1,2.05.53l-.36,1.11a3.26,3.26,0,0,0-1.73-.5c-.9,0-1.39.52-1.39,1.15s.49,1,1.58,1.44c1.45.54,2.21,1.27,2.21,2.53,0,1.49-1.16,2.54-3.13,2.54A4.8,4.8,0,0,1,9,15.62Z" style="fill:#231f20"/><line x1="11.7" y1="5.7" x2="11.7" y2="18.27" style="fill:none;stroke:#231f20;stroke-miterlimit:10;stroke-width:0.569609999656677px"/></g></g></svg>