<svg xmlns="http://www.w3.org/2000/svg" viewBox="0 0 23.41 23.41"><title>Add to Cart icon</title><g id="Layer_2" data-name="Layer 2"><g id="Layer_4" data-name="Layer 4"><circle cx="11.7" cy="11.7" r="11.51" style="fill:#fff;stroke:#231f20;stroke-miterlimit:10;stroke-width:0.379739999771118px"/><path d="M15.27,15.73H8.65a.29.29,0,0,1-.29-.23L7,9.65a.29.29,0,0,1,.06-.25.28.28,0,0,1,.23-.11h9.78a.3.3,0,0,1,.24.12.3.3,0,0,1,0,.26l-1.79,5.85A.29.29,0,0,1,15.27,15.73Zm-6.39-.59h6.17l1.61-5.26h-9Z" style="fill:#231f20"/><path d="M9.37,18a1,1,0,1,1,1-1A1,1,0,0,1,9.37,18Zm0-1.44a.43.43,0,1,0,.42.42A.42.42,0,0,0,9.37,16.51Z" style="fill:#231f20"/><path d="M14.46,18a1,1,0,1,1,1-1A1,1,0,0,1,14.46,18Zm0-1.44a.43.43,0,0,0,0,.85.43.43,0,1,0,0-.85Z" style="fill:#231f20"/><path d="M8,12.91a.31.31,0,0,1-.29-.22L6.19,7.15a.29.29,0,0,1,.21-.36.29.29,0,0,1,.36.2l1.51,5.54a.3.3,0,0,1-.2.37Z" style="fill:#231f20"/><path d="M6.48,7.37H5.24a.3.3,0,1,1,0-.59H6.48a.3.3,0,0,1,0,.59Z" style="fill:#231f20"/><path d="M14.89,11.7H9.16a.3.3,0,0,1-.29-.3.29.29,0,0,1,.29-.29h5.73a.3.3,0,0,1,.3.29A.31.31,0,0,1,14.89,11.7Z" style="fill:#231f20"/><path d="M14.46,13H9.59a.3.3,0,0,1,0-.59h4.87a.3.3,0,1,1,0,.59Z" style="fill:#231f20"/><path d="M14,14.12H10a.3.3,0,0,1,0-.59h4a.3.3,0,1,1,0,.59Z" style="fill:#231f20"/></g></g></svg>