<svg xmlns="http://www.w3.org/2000/svg" viewBox="0 0 23.41 23.41"><title>Delete button</title><g id="Layer_2" data-name="Layer 2"><g id="Layer_4" data-name="Layer 4"><circle cx="11.7" cy="11.7" r="11.51" style="fill:#fff;stroke:#231f20;stroke-miterlimit:10;stroke-width:0.379739999771118px"/><path d="M15,16.19a1.19,1.19,0,0,1-.86-.35L11.7,13.42,9.29,15.84a1.21,1.21,0,0,1-.86.35,1.19,1.19,0,0,1-.86-.35A1.22,1.22,0,0,1,7.21,15a1.2,1.2,0,0,1,.36-.86L10,11.7,7.57,9.29a1.22,1.22,0,0,1-.36-.86,1.22,1.22,0,0,1,2.08-.86L11.7,10l2.42-2.41a1.21,1.21,0,0,1,1.72,0,1.23,1.23,0,0,1,0,1.72L13.42,11.7l2.42,2.42a1.2,1.2,0,0,1,.36.86A1.21,1.21,0,0,1,15,16.19ZM11.7,12.71l2.77,2.77a.71.71,0,0,0,.51.21.72.72,0,0,0,.71-.71.71.71,0,0,0-.21-.51L12.71,11.7l2.77-2.77a.71.71,0,0,0-1-1L11.7,10.69,8.93,7.92a.71.71,0,0,0-1,0,.75.75,0,0,0-.21.51.71.71,0,0,0,.21.5l2.77,2.77L7.92,14.47a.75.75,0,0,0-.21.51.72.72,0,0,0,.72.71.67.67,0,0,0,.5-.21Z" style="fill:#231f20"/></g></g></svg>