<svg xmlns="http://www.w3.org/2000/svg" viewBox="0 0 23.5 23.5"><title>Heart icon</title><g id="Layer_2" data-name="Layer 2"><g id="Layer_4" data-name="Layer 4"><circle cx="11.75" cy="11.75" r="11.6" style="fill:#fff;stroke:#231f20;stroke-miterlimit:10;stroke-width:0.300570690477812px"/><path d="M11.75,18.28l-.18-.11c-3-1.86-5.16-3.79-5.9-5.28a6,6,0,0,1-.29-4.52,3.26,3.26,0,0,1,2.37-1.9,4,4,0,0,1,.6,0,4.92,4.92,0,0,1,3.4,1.64,4.92,4.92,0,0,1,3.4-1.64,4.18,4.18,0,0,1,.61,0,3.24,3.24,0,0,1,2.36,1.9,6,6,0,0,1-.29,4.52c-.73,1.49-2.89,3.42-5.9,5.28ZM8.35,7.1a2.7,2.7,0,0,0-.49,0A2.58,2.58,0,0,0,6,8.65a5.33,5.33,0,0,0,.28,3.94c.65,1.34,2.69,3.16,5.47,4.89,2.78-1.73,4.82-3.55,5.47-4.89a5.33,5.33,0,0,0,.28-3.94,2.56,2.56,0,0,0-1.86-1.51,2.7,2.7,0,0,0-.49,0A4.51,4.51,0,0,0,12,8.78l-.27.35-.27-.35A4.53,4.53,0,0,0,8.35,7.1Z"/></g></g></svg>